<?xml version="1.0" standalone="no"?>
<!DOCTYPE svg PUBLIC "-//W3C//DTD SVG 20010904//EN"
 "http://www.w3.org/TR/2001/REC-SVG-20010904/DTD/svg10.dtd">
<svg version="1.0" xmlns="http://www.w3.org/2000/svg"
 width="3377.000000pt" height="3396.000000pt" viewBox="0 0 3377.000000 3396.000000"
 preserveAspectRatio="xMidYMid meet">

<g transform="translate(0.000000,3396.000000) scale(0.100000,-0.100000)"
fill="#000000" stroke="none">
<path d="M12770 33939 c-1871 -81 -3691 -552 -5370 -1390 -1599 -799 -3002
-1892 -4171 -3249 -2237 -2600 -3382 -5950 -3208 -9390 170 -3363 1596 -6519
4011 -8875 2224 -2171 5110 -3491 8193 -3750 362 -30 509 -36 970 -42 604 -7
1013 11 1565 68 2110 218 4172 957 5950 2131 l25 17 3685 -3630 c2027 -1997
3684 -3637 3684 -3644 -2 -14 907 -915 922 -915 5 0 245 -236 534 -523 560
-559 579 -575 749 -648 501 -212 1230 -61 1917 397 361 241 768 643 1016 1004
285 413 463 854 509 1260 14 129 7 368 -15 470 -35 159 -98 309 -181 425 -64
90 -1143 1159 -5423 5374 -3504 3451 -3891 3835 -3880 3852 73 102 357 529
435 654 1687 2707 2346 5853 1887 9010 -314 2155 -1162 4215 -2462 5975 -1236
1673 -2837 3032 -4687 3976 -1590 811 -3302 1289 -5080 1419 -478 34 -1109 44
-1575 24z m1265 -639 c115 -6 211 -13 213 -15 7 -6 -29 -559 -36 -566 -4 -3
-79 -2 -167 3 -163 9 -979 7 -989 -2 -2 -3 -2 -73 1 -155 l6 -150 406 0 406 0
-3 -190 c-1 -104 -5 -227 -8 -272 l-6 -82 -378 -3 c-208 -2 -381 -6 -385 -9
-5 -6 17 -612 29 -791 l5 -67 -32 -5 c-18 -2 -113 -9 -212 -15 -99 -6 -261
-20 -359 -31 -99 -11 -181 -18 -183 -16 -6 5 -293 2222 -293 2257 0 26 0 26
138 42 201 24 591 56 797 66 265 12 810 12 1050 1z m1060 -95 c434 -59 866
-142 1296 -250 194 -49 592 -164 602 -174 6 -6 -142 -511 -159 -542 -2 -4 -79
16 -171 43 -299 88 -958 248 -968 236 -6 -8 -58 -298 -54 -302 2 -3 81 -21
174 -41 199 -43 597 -143 607 -153 5 -6 -128 -506 -139 -521 -1 -2 -91 19
-200 47 -211 55 -510 122 -540 122 -16 0 -28 -50 -102 -420 -54 -273 -88 -420
-96 -420 -6 0 -74 11 -149 25 -153 29 -424 69 -531 80 -38 4 -75 10 -80 14 -7
4 28 347 106 1036 64 567 122 1081 129 1142 l12 113 37 -5 c20 -3 122 -16 226
-30z m-4355 -370 c190 -36 346 -97 484 -189 86 -58 219 -185 268 -257 53 -78
117 -221 145 -324 23 -88 26 -120 27 -265 1 -186 -15 -270 -81 -430 -208 -507
-738 -874 -1358 -941 -275 -29 -570 20 -811 135 -142 68 -218 120 -320 218
-165 158 -271 356 -309 577 -35 198 0 401 106 616 122 247 373 494 659 648
200 108 448 188 685 222 125 18 386 13 505 -10z m6933 -286 c358 -133 883
-371 1260 -571 213 -112 515 -283 534 -302 10 -9 -18 -63 -133 -254 -80 -133
-149 -242 -154 -242 -5 0 -60 30 -122 66 -277 163 -788 428 -814 422 -8 -2
-40 -57 -71 -123 -42 -90 -53 -120 -42 -124 62 -20 765 -393 792 -420 7 -7
-229 -427 -258 -459 -10 -11 -44 4 -191 86 -191 106 -584 306 -590 299 -5 -5
-134 -277 -134 -282 0 -3 51 -29 113 -58 218 -103 727 -384 727 -401 0 -5 -66
-119 -146 -253 l-145 -244 -26 16 c-76 50 -406 230 -593 324 -250 124 -447
213 -720 322 -147 58 -194 82 -192 93 2 13 666 1807 768 2079 21 54 30 67 43
62 9 -4 51 -20 94 -36z m-9835 -1178 c166 -42 332 -133 440 -243 l53 -54 -53
-29 c-119 -64 -415 -245 -593 -363 l-190 -125 -62 17 c-165 44 -325 5 -488
-119 -216 -164 -272 -415 -140 -626 74 -117 182 -211 292 -252 81 -30 225 -30
306 0 137 51 271 171 332 298 34 69 63 201 51 231 -8 22 446 318 736 478 l66
37 16 -69 c79 -349 7 -685 -214 -1000 -65 -92 -239 -274 -345 -359 -519 -419
-1064 -537 -1535 -334 -241 104 -459 311 -566 536 -140 296 -123 624 52 966
76 149 158 261 294 402 338 352 762 582 1160 631 85 10 307 -3 388 -23z
m12326 -143 c499 -348 923 -700 1461 -1211 l100 -95 -204 -206 -204 -205 -171
162 c-264 250 -637 577 -657 577 -4 0 -46 -47 -93 -104 l-85 -105 117 -98
c147 -123 345 -300 487 -435 l110 -105 -190 -195 -190 -196 -119 112 c-215
201 -542 486 -558 486 -8 0 -198 -229 -198 -239 0 -4 50 -50 112 -102 144
-121 307 -268 483 -436 l140 -133 -204 -204 -205 -205 -139 132 c-179 169
-377 344 -536 476 -149 122 -482 373 -599 451 -53 35 -81 60 -78 70 4 16 1277
1900 1284 1900 3 0 64 -41 136 -92z m-6094 -1298 c1675 -102 3220 -611 4600
-1517 560 -368 983 -715 1481 -1212 383 -384 574 -603 876 -1005 1041 -1387
1671 -3025 1827 -4756 54 -590 46 -1303 -20 -1895 -307 -2761 -1840 -5248
-4179 -6780 -776 -509 -1602 -889 -2495 -1150 -1593 -465 -3306 -495 -4922
-86 -1299 329 -2496 927 -3553 1776 -104 84 -251 206 -325 271 -180 158 -569
542 -742 733 -1304 1439 -2124 3224 -2357 5131 -223 1815 83 3642 882 5270
369 753 848 1463 1426 2115 167 189 600 618 796 789 1287 1124 2792 1859 4445
2170 346 65 722 113 1055 136 88 6 180 12 205 13 116 8 853 6 1000 -3z m-6125
-18031 c132 -113 303 -252 455 -369 301 -231 452 -445 490 -695 31 -202 -46
-431 -195 -581 -183 -184 -447 -229 -752 -129 -185 62 -304 131 -565 333 -81
62 -150 113 -153 113 -3 0 -96 -112 -206 -248 -111 -136 -207 -254 -214 -262
-11 -12 -33 3 -142 95 -166 141 -315 276 -482 436 l-135 129 764 764 764 764
136 -132 c75 -73 181 -171 235 -218z m9756 -320 c549 -303 1365 -643 1967
-819 l113 -34 -73 -74 c-171 -174 -691 -632 -717 -632 -6 0 -79 34 -162 76
-83 41 -157 73 -163 71 -7 -3 -60 -41 -117 -85 -147 -112 -421 -303 -575 -400
l-130 -82 18 -152 c25 -224 33 -198 -75 -262 -153 -89 -400 -221 -605 -321
-106 -52 -193 -95 -195 -95 -1 0 0 204 1 452 6 685 -30 1236 -117 1793 -14 90
-16 123 -7 131 6 6 69 48 140 93 139 89 340 229 476 334 47 36 91 66 98 66 7
1 63 -26 123 -60z m-7830 -905 c314 -139 792 -306 1119 -389 102 -26 204 -53
226 -59 l41 -11 -58 -259 c-32 -142 -60 -261 -62 -263 -12 -11 -534 130 -746
202 -58 19 -106 33 -108 32 -5 -5 -83 -227 -83 -236 0 -14 518 -171 743 -225
15 -3 27 -10 27 -15 0 -13 -111 -474 -116 -482 -8 -14 -384 89 -747 204 -55
18 -80 22 -83 14 -21 -57 -84 -253 -84 -262 0 -20 457 -160 775 -237 94 -23
174 -44 178 -48 6 -6 -90 -467 -107 -516 -11 -29 -711 165 -1126 313 -307 109
-790 309 -790 327 0 13 890 1956 896 1956 1 0 48 -21 105 -46z m6026 -1186
c205 -557 370 -1014 368 -1016 -20 -20 -814 -267 -882 -274 l-26 -3 -270 1037
c-149 571 -268 1040 -266 1042 3 3 90 30 194 60 105 30 260 79 345 109 85 30
157 55 160 56 3 0 172 -454 377 -1011z m-3752 587 c236 -23 455 -35 645 -35
418 -1 654 -44 906 -165 301 -145 517 -400 595 -703 164 -637 -296 -1173
-1094 -1277 -193 -25 -695 -18 -1077 15 -266 23 -432 44 -437 55 -2 7 57 488
131 1069 75 581 136 1059 136 1061 0 3 10 3 23 0 12 -3 90 -11 172 -20z"/>
<path d="M10145 32141 c-420 -114 -576 -410 -397 -756 75 -145 212 -246 358
-264 171 -21 403 51 531 163 111 97 159 221 150 383 -11 216 -110 378 -276
456 -60 29 -76 32 -181 34 -88 2 -131 -2 -185 -16z"/>
<path d="M12155 27033 c-801 -47 -1322 -124 -2000 -295 -416 -104 -676 -194
-930 -318 -553 -270 -852 -640 -1005 -1244 -50 -197 -64 -306 -58 -452 6 -145
30 -216 93 -279 109 -110 273 -96 385 32 60 69 149 260 225 478 152 442 197
547 276 652 70 93 229 187 428 253 150 50 303 81 581 120 338 47 393 57 665
120 467 109 860 177 1255 217 222 22 873 25 1080 5 448 -44 804 -117 1556
-317 219 -59 689 -178 1044 -265 1151 -282 1684 -430 2285 -633 771 -261 1413
-558 1909 -884 624 -409 1055 -896 1271 -1433 147 -365 176 -698 79 -907 -21
-46 -57 -88 -174 -203 -163 -161 -206 -226 -217 -332 -26 -256 331 -411 675
-294 121 42 191 85 283 176 125 123 197 259 257 479 23 87 26 113 26 286 0
158 -4 206 -21 285 -101 453 -351 888 -832 1450 -427 500 -835 844 -1386 1172
-945 561 -2135 1038 -3920 1571 -1173 351 -1988 506 -2910 557 -168 9 -787 11
-920 3z"/>
<path d="M11635 25979 c-296 -14 -661 -63 -852 -114 -50 -14 -138 -44 -195
-66 -147 -59 -1131 -537 -1257 -612 -145 -85 -292 -229 -345 -337 -83 -171
-83 -310 1 -480 40 -81 60 -109 147 -196 148 -149 278 -229 666 -407 390 -179
536 -257 960 -510 927 -554 1478 -822 2176 -1060 637 -217 1012 -296 2044
-427 636 -81 860 -122 1468 -270 588 -142 842 -191 1197 -229 338 -37 432 -42
936 -48 1078 -12 1561 37 1860 187 419 212 567 624 384 1076 -67 166 -178 342
-333 529 -109 131 -458 466 -603 579 -387 302 -837 535 -1685 874 -1096 438
-2273 809 -3439 1082 -1217 286 -1901 399 -2595 430 -246 11 -298 11 -535 -1z
m124 -689 c633 -34 1200 -169 2295 -547 1314 -453 1519 -511 2913 -822 1189
-266 1663 -389 2148 -561 434 -154 727 -371 827 -612 17 -42 22 -73 22 -154 1
-98 0 -102 -41 -185 -128 -258 -489 -451 -978 -523 -269 -40 -788 -46 -983
-12 -220 39 -317 111 -290 214 23 85 145 112 590 132 438 20 596 62 675 179
37 55 31 72 -48 140 -197 170 -435 294 -789 411 -210 70 -417 123 -895 230
-1433 321 -2939 763 -4223 1239 l-83 31 6 -38 c27 -159 119 -366 229 -514 301
-404 853 -728 1421 -833 155 -29 384 -45 503 -36 l82 6 -355 279 c-195 154
-353 281 -351 283 4 4 1485 -523 1493 -531 7 -7 -47 -311 -58 -328 -22 -35
-792 -62 -1111 -39 -1024 74 -2015 376 -2871 873 -394 229 -709 470 -1022 783
-254 254 -318 341 -332 455 -28 240 329 450 814 479 189 12 201 12 412 1z"/>
<path d="M8057 24233 c-27 -27 13 -108 101 -205 43 -46 82 -109 82 -132 0 -3
-33 19 -74 48 -377 271 -865 314 -1426 127 -984 -328 -1682 -1180 -1915 -2335
-58 -292 -70 -414 -70 -756 0 -371 22 -577 96 -877 210 -860 682 -1509 1681
-2310 95 -77 278 -222 407 -323 583 -457 823 -680 962 -894 71 -108 125 -240
139 -338 37 -252 40 -263 79 -343 67 -136 188 -263 378 -398 362 -255 750
-320 1043 -173 326 164 466 501 348 843 -70 203 -176 353 -437 614 -199 198
-292 282 -661 594 -364 308 -1510 1295 -1655 1426 -159 142 -378 366 -464 474
-332 413 -486 884 -468 1425 12 339 71 584 211 875 121 250 260 440 467 641
215 208 527 405 754 477 79 25 554 131 560 125 1 -2 10 -40 19 -86 9 -46 32
-136 52 -200 133 -449 146 -579 149 -1432 2 -794 1 -783 135 -1525 100 -557
123 -744 123 -1035 1 -257 -27 -455 -83 -608 -15 -40 -17 -54 -7 -57 6 -3 51
-16 100 -30 216 -62 516 -184 684 -278 354 -199 540 -427 668 -817 141 -431
185 -1055 100 -1406 -12 -53 -27 -99 -31 -104 -24 -22 -399 -77 -754 -110
-249 -23 -313 -35 -428 -80 -125 -48 -375 -204 -407 -254 -11 -16 -87 -367
-132 -607 -4 -22 4 -33 49 -71 204 -172 1195 -812 1653 -1068 712 -397 1606
-677 2815 -880 294 -50 1052 -163 1225 -184 299 -35 469 -30 658 19 324 84
816 382 1018 616 138 162 231 330 411 747 129 301 181 408 256 522 87 135 154
209 423 470 356 345 444 452 796 960 93 135 236 341 317 459 457 659 1232
1875 1503 2361 66 118 184 330 261 471 374 682 529 909 907 1329 340 377 473
555 590 790 58 115 105 230 95 230 -5 0 -87 -7 -182 -15 -1614 -137 -3998 19
-6399 420 -1965 328 -3302 800 -4464 1575 -442 295 -802 595 -1203 1004 l-223
227 -37 -12 c-61 -20 -171 -73 -266 -128 -49 -28 -94 -51 -101 -51 -6 0 -20
10 -31 22 -45 51 -210 178 -268 207 -60 29 -114 39 -129 24z"/>
<path d="M7693 11154 c-65 -80 -119 -149 -121 -154 -5 -13 205 -176 265 -206
76 -38 140 -37 195 2 88 61 113 171 59 256 -29 45 -47 62 -198 182 l-83 65
-117 -145z"/>
<path d="M17640 10767 c0 -15 120 -600 124 -604 5 -5 319 208 377 256 l32 27
-139 84 c-76 46 -194 119 -262 162 -117 74 -132 82 -132 75z"/>
<path d="M12670 9439 c-2 -16 -29 -882 -30 -911 l0 -38 170 0 c195 0 290 15
389 61 183 84 261 202 261 395 0 242 -126 400 -375 469 -41 11 -117 19 -237
22 -98 3 -178 4 -178 2z"/>
</g>
</svg>
